<svg xmlns="http://www.w3.org/2000/svg" xmlns:xlink="http://www.w3.org/1999/xlink" viewBox="0 0 1046.23 812.56"><defs><style>.cls-1,.cls-10,.cls-11,.cls-12,.cls-4,.cls-5,.cls-6,.cls-7,.cls-8,.cls-9{fill:none;}.cls-2{fill:url(#Degradado_sin_nombre_2);}.cls-3{clip-path:url(#clip-path);}.cls-10,.cls-11,.cls-12,.cls-4,.cls-5,.cls-6,.cls-7,.cls-8,.cls-9{stroke-miterlimit:10;}.cls-4{stroke:url(#Degradado_sin_nombre_8);}.cls-5{stroke:url(#Degradado_sin_nombre_8-2);}.cls-6{stroke:url(#Degradado_sin_nombre_8-3);}.cls-7{stroke:url(#Degradado_sin_nombre_8-4);}.cls-8{stroke:url(#Degradado_sin_nombre_8-5);}.cls-9{stroke:url(#Degradado_sin_nombre_8-6);}.cls-10{stroke:url(#Degradado_sin_nombre_8-7);}.cls-11{stroke:url(#Degradado_sin_nombre_8-8);}.cls-12{stroke:url(#Degradado_sin_nombre_8-9);}.cls-13{fill:url(#Degradado_sin_nombre_23);}.cls-14{fill:url(#Degradado_sin_nombre_23-2);}.cls-15{fill:url(#Degradado_sin_nombre_23-3);}.cls-16{fill:url(#Degradado_sin_nombre_23-4);}.cls-17{fill:url(#Degradado_sin_nombre_23-5);}.cls-18{fill:url(#Degradado_sin_nombre_23-6);}.cls-19{fill:url(#Degradado_sin_nombre_23-7);}.cls-20{fill:url(#Degradado_sin_nombre_23-8);}.cls-21{fill:url(#Degradado_sin_nombre_23-9);}.cls-22{fill:url(#Degradado_sin_nombre_23-10);}.cls-23{fill:url(#Degradado_sin_nombre_23-11);}.cls-24{fill:url(#Degradado_sin_nombre_23-12);}.cls-25{fill:url(#Degradado_sin_nombre_23-13);}.cls-26{fill:url(#Degradado_sin_nombre_23-14);}.cls-27{fill:url(#Degradado_sin_nombre_23-15);}.cls-28{fill:url(#Degradado_sin_nombre_23-16);}.cls-29{fill:url(#Degradado_sin_nombre_23-17);}.cls-30{fill:url(#Degradado_sin_nombre_23-18);}.cls-31{fill:url(#Degradado_sin_nombre_23-19);}.cls-32{fill:url(#Degradado_sin_nombre_23-20);}.cls-33{fill:url(#Degradado_sin_nombre_23-21);}.cls-34{fill:url(#Degradado_sin_nombre_23-22);}.cls-35{fill:url(#Degradado_sin_nombre_23-23);}.cls-36{fill:url(#Degradado_sin_nombre_23-24);}.cls-37{fill:url(#Degradado_sin_nombre_33);}.cls-38{fill:url(#Degradado_sin_nombre_33-2);}.cls-39{fill:url(#Degradado_sin_nombre_33-3);}.cls-40{fill:url(#Degradado_sin_nombre_33-4);}.cls-41{fill:url(#Degradado_sin_nombre_33-5);}.cls-42{fill:url(#Degradado_sin_nombre_33-6);}.cls-43{fill:url(#Degradado_sin_nombre_23-25);}.cls-44{fill:url(#Degradado_sin_nombre_23-26);}.cls-45{fill:url(#Degradado_sin_nombre_23-27);}.cls-46{fill:url(#Degradado_sin_nombre_23-28);}.cls-47{fill:url(#Degradado_sin_nombre_23-29);}.cls-48{fill:url(#Degradado_sin_nombre_23-30);}.cls-49{fill:url(#Degradado_sin_nombre_23-31);}.cls-50{fill:url(#Degradado_sin_nombre_23-32);}</style><radialGradient id="Degradado_sin_nombre_2" cx="542.64" cy="361.73" r="539.81" gradientTransform="translate(0 45.7) scale(1 0.87)" gradientUnits="userSpaceOnUse"><stop offset="0" stop-color="#8209d8"/><stop offset="0" stop-color="#8109d7"/><stop offset="0.17" stop-color="#690bab"/><stop offset="0.33" stop-color="#550d87"/><stop offset="0.5" stop-color="#460f6b"/><stop offset="0.67" stop-color="#3b1057"/><stop offset="0.83" stop-color="#34114b"/><stop offset="1" stop-color="#321147"/></radialGradient><clipPath id="clip-path"><rect class="cls-1" x="167.64" y="111.73" width="750" height="500"/></clipPath><linearGradient id="Degradado_sin_nombre_8" x1="414.76" y1="362.08" x2="671.23" y2="362.08" gradientUnits="userSpaceOnUse"><stop offset="0" stop-color="#e10ff2"/><stop offset="1" stop-color="#8e03e0"/></linearGradient><linearGradient id="Degradado_sin_nombre_8-2" x1="597.17" y1="536.53" x2="853.64" y2="536.53" gradientTransform="translate(1029.18 -41.08) rotate(90)" xlink:href="#Degradado_sin_nombre_8"/><linearGradient id="Degradado_sin_nombre_8-3" x1="23.55" y1="329.6" x2="280.01" y2="329.6" gradientTransform="translate(557.11 29.92) rotate(90)" xlink:href="#Degradado_sin_nombre_8"/><linearGradient id="Degradado_sin_nombre_8-4" x1="447.59" y1="364.08" x2="704.06" y2="364.08" gradientTransform="translate(557.11 29.92) rotate(90)" xlink:href="#Degradado_sin_nombre_8"/><linearGradient id="Degradado_sin_nombre_8-5" x1="252.81" y1="423.2" x2="509.28" y2="423.2" gradientTransform="translate(509.28 827.77) rotate(180)" xlink:href="#Degradado_sin_nombre_8"/><linearGradient id="Degradado_sin_nombre_8-6" x1="501.61" y1="568.99" x2="758.07" y2="568.99" gradientTransform="translate(1174.69 -127.48) rotate(90)" xlink:href="#Degradado_sin_nombre_8"/><linearGradient id="Degradado_sin_nombre_8-7" x1="568.21" y1="328.61" x2="824.68" y2="328.61" gradientTransform="translate(221.55 234.64)" xlink:href="#Degradado_sin_nombre_8"/><linearGradient id="Degradado_sin_nombre_8-8" x1="800.53" y1="457.95" x2="1056.99" y2="457.95" gradientTransform="translate(283.23 1115.58) rotate(-90)" xlink:href="#Degradado_sin_nombre_8"/><linearGradient id="Degradado_sin_nombre_8-9" x1="1119.84" y1="739.39" x2="1376.31" y2="739.39" gradientTransform="translate(-405.34 541.04) rotate(-45)" xlink:href="#Degradado_sin_nombre_8"/><linearGradient id="Degradado_sin_nombre_23" x1="399.83" y1="312.67" x2="518.94" y2="312.67" gradientTransform="translate(170.44 83.05) scale(0.7 1)" gradientUnits="userSpaceOnUse"><stop offset="0" stop-color="#ff09ff"/><stop offset="0.67" stop-color="#62aeff"/><stop offset="1" stop-color="#1afaff"/></linearGradient><linearGradient id="Degradado_sin_nombre_23-2" x1="432.93" y1="-45.78" x2="552.03" y2="-45.78" gradientTransform="translate(-89.83 171.61) scale(0.7 1)" xlink:href="#Degradado_sin_nombre_23"/><linearGradient id="Degradado_sin_nombre_23-3" x1="251.74" y1="121.69" x2="370.84" y2="121.69" gradientTransform="translate(65.85 212.52) scale(0.7 1)" xlink:href="#Degradado_sin_nombre_23"/><linearGradient id="Degradado_sin_nombre_23-4" x1="-35.51" y1="243.41" x2="83.59" y2="243.41" gradientTransform="translate(210.99 319.49) scale(0.7 1)" xlink:href="#Degradado_sin_nombre_23"/><linearGradient id="Degradado_sin_nombre_23-5" x1="654.91" y1="121.69" x2="774.01" y2="121.69" gradientTransform="translate(-17.06 12.34) scale(0.7 1)" xlink:href="#Degradado_sin_nombre_23"/><linearGradient id="Degradado_sin_nombre_23-6" x1="726.74" y1="375.09" x2="845.85" y2="375.09" gradientTransform="translate(147.34 -97.54) scale(0.7 1)" xlink:href="#Degradado_sin_nombre_23"/><linearGradient id="Degradado_sin_nombre_23-7" x1="557.28" y1="152.53" x2="676.39" y2="152.53" gradientTransform="translate(-499.12 345.38) scale(1.85 0.17)" xlink:href="#Degradado_sin_nombre_23"/><linearGradient id="Degradado_sin_nombre_23-8" x1="658.82" y1="-790.94" x2="709.24" y2="-790.94" gradientTransform="translate(-652.25 305.8) scale(1.85 0.17)" xlink:href="#Degradado_sin_nombre_23"/><linearGradient id="Degradado_sin_nombre_23-9" x1="358.18" y1="-1320.76" x2="408.6" y2="-1320.76" gradientTransform="translate(-554.85 726.3) scale(1.85 0.17)" xlink:href="#Degradado_sin_nombre_23"/><linearGradient id="Degradado_sin_nombre_23-10" x1="786.55" y1="229.59" x2="836.97" y2="229.59" gradientTransform="translate(-595.23 86.39) scale(1.85 0.17)" xlink:href="#Degradado_sin_nombre_23"/><linearGradient id="Degradado_sin_nombre_23-11" x1="494.41" y1="571.47" x2="544.83" y2="571.47" gradientTransform="translate(-394.61 451.11) scale(1.85 0.17)" xlink:href="#Degradado_sin_nombre_23"/><linearGradient id="Degradado_sin_nombre_23-12" x1="627.34" y1="1386.87" x2="677.76" y2="1386.87" gradientTransform="translate(-365.79 235.4) scale(1.85 0.17)" xlink:href="#Degradado_sin_nombre_23"/><linearGradient id="Degradado_sin_nombre_23-13" x1="471.69" y1="1057.77" x2="590.8" y2="1057.77" gradientTransform="translate(-340.76 410.98) scale(1.85 0.17)" xlink:href="#Degradado_sin_nombre_23"/><linearGradient id="Degradado_sin_nombre_23-14" x1="625.37" y1="1774.59" x2="744.48" y2="1774.59" gradientTransform="translate(-335.37 173.18) scale(1.85 0.17)" xlink:href="#Degradado_sin_nombre_23"/><linearGradient id="Degradado_sin_nombre_23-15" x1="686.04" y1="950.43" x2="805.15" y2="950.43" gradientTransform="translate(-470.21 136.01) scale(1.85 0.17)" xlink:href="#Degradado_sin_nombre_23"/><linearGradient id="Degradado_sin_nombre_23-16" x1="544.55" y1="-1270.09" x2="663.66" y2="-1270.09" gradientTransform="translate(-668.2 434.92) scale(1.85 0.17)" xlink:href="#Degradado_sin_nombre_23"/><linearGradient id="Degradado_sin_nombre_23-17" x1="387.29" y1="-874.72" x2="506.4" y2="-874.72" gradientTransform="translate(-534.06 620.43) scale(1.85 0.17)" xlink:href="#Degradado_sin_nombre_23"/><linearGradient id="Degradado_sin_nombre_23-18" x1="462.01" y1="-2509.34" x2="581.12" y2="-2509.34" gradientTransform="translate(-776.76 606.41) scale(1.85 0.17)" xlink:href="#Degradado_sin_nombre_23"/><linearGradient id="Degradado_sin_nombre_23-19" x1="717.04" y1="-288.46" x2="836.15" y2="-288.46" gradientTransform="translate(-640.26 158.94) scale(1.85 0.17)" xlink:href="#Degradado_sin_nombre_23"/><linearGradient id="Degradado_sin_nombre_23-20" x1="997.24" y1="344.03" x2="1116.34" y2="344.03" gradientTransform="translate(69.75 -222.74) scale(0.7 1)" xlink:href="#Degradado_sin_nombre_23"/><linearGradient id="Degradado_sin_nombre_23-21" x1="462.7" y1="528.79" x2="581.8" y2="528.79" gradientTransform="translate(310.32 -11.46) scale(0.7 1)" xlink:href="#Degradado_sin_nombre_23"/><linearGradient id="Degradado_sin_nombre_23-22" x1="159.71" y1="401.47" x2="278.82" y2="401.47" gradientTransform="translate(282.61 176.26) scale(0.7 1)" xlink:href="#Degradado_sin_nombre_23"/><linearGradient id="Degradado_sin_nombre_23-23" x1="957.73" y1="499.65" x2="1076.84" y2="499.65" gradientTransform="translate(187.91 -248.71) scale(0.7 1)" xlink:href="#Degradado_sin_nombre_23"/><linearGradient id="Degradado_sin_nombre_23-24" x1="601.66" y1="711.79" x2="720.77" y2="711.79" gradientTransform="translate(411.15 -134.06) scale(0.7 1)" xlink:href="#Degradado_sin_nombre_23"/><radialGradient id="Degradado_sin_nombre_33" cx="632.1" cy="352.04" r="102.74" gradientTransform="translate(1267.03 -335.91) rotate(45) scale(0.06 2.42)" gradientUnits="userSpaceOnUse"><stop offset="0" stop-color="#fff"/><stop offset="0.01" stop-color="#fff" stop-opacity="0.96"/><stop offset="0.05" stop-color="#fff" stop-opacity="0.78"/><stop offset="0.09" stop-color="#fff" stop-opacity="0.61"/><stop offset="0.14" stop-color="#fff" stop-opacity="0.47"/><stop offset="0.2" stop-color="#fff" stop-opacity="0.34"/><stop offset="0.25" stop-color="#fff" stop-opacity="0.23"/><stop offset="0.32" stop-color="#fff" stop-opacity="0.15"/><stop offset="0.4" stop-color="#fff" stop-opacity="0.08"/><stop offset="0.49" stop-color="#fff" stop-opacity="0.03"/><stop offset="0.63" stop-color="#fff" stop-opacity="0.01"/><stop offset="1" stop-color="#fff" stop-opacity="0"/></radialGradient><radialGradient id="Degradado_sin_nombre_33-2" cx="1169.71" cy="257.25" r="83.39" xlink:href="#Degradado_sin_nombre_33"/><radialGradient id="Degradado_sin_nombre_33-3" cx="-3528.33" cy="472.06" r="102.74" gradientTransform="matrix(0, 0.06, -2.42, 0, 1449.85, 533.58)" xlink:href="#Degradado_sin_nombre_33"/><radialGradient id="Degradado_sin_nombre_33-4" cx="-1976.45" cy="489.36" r="102.74" xlink:href="#Degradado_sin_nombre_33"/><radialGradient id="Degradado_sin_nombre_33-5" cx="2959.38" cy="435.17" r="102.74" xlink:href="#Degradado_sin_nombre_33"/><radialGradient id="Degradado_sin_nombre_33-6" cx="-6301.89" cy="439.36" r="73.33" xlink:href="#Degradado_sin_nombre_33"/><linearGradient id="Degradado_sin_nombre_23-25" x1="759.73" y1="382.51" x2="788.24" y2="382.51" gradientTransform="matrix(1, 0, 0, 1, 0, 0)" xlink:href="#Degradado_sin_nombre_23"/><linearGradient id="Degradado_sin_nombre_23-26" x1="870.93" y1="194.68" x2="899.43" y2="194.68" gradientTransform="matrix(1, 0, 0, 1, 0, 0)" xlink:href="#Degradado_sin_nombre_23"/><linearGradient id="Degradado_sin_nombre_23-27" x1="805.09" y1="590.94" x2="833.6" y2="590.94" gradientTransform="matrix(1, 0, 0, 1, 0, 0)" xlink:href="#Degradado_sin_nombre_23"/><linearGradient id="Degradado_sin_nombre_23-28" x1="286.45" y1="170.57" x2="314.96" y2="170.57" gradientTransform="matrix(1, 0, 0, 1, 0, 0)" xlink:href="#Degradado_sin_nombre_23"/><linearGradient id="Degradado_sin_nombre_23-29" x1="486.97" y1="494.26" x2="515.48" y2="494.26" gradientTransform="matrix(1, 0, 0, 1, 0, 0)" xlink:href="#Degradado_sin_nombre_23"/><linearGradient id="Degradado_sin_nombre_23-30" x1="264.24" y1="577.73" x2="292.75" y2="577.73" gradientTransform="matrix(1, 0, 0, 1, 0, 0)" xlink:href="#Degradado_sin_nombre_23"/><linearGradient id="Degradado_sin_nombre_23-31" x1="560.99" y1="277.55" x2="589.49" y2="277.55" gradientTransform="matrix(1, 0, 0, 1, 0, 0)" xlink:href="#Degradado_sin_nombre_23"/><linearGradient id="Degradado_sin_nombre_23-32" x1="174.06" y1="292.88" x2="202.57" y2="292.88" gradientTransform="matrix(1, 0, 0, 1, 0, 0)" xlink:href="#Degradado_sin_nombre_23"/></defs><title>walk3Recurso 1</title><g id="Capa_2" data-name="Capa 2"><g id="BACKGROUND_2" data-name="BACKGROUND 2"><rect class="cls-2" x="167.64" y="111.73" width="750" height="500"/><g class="cls-3"><polygon class="cls-4" points="415.26 489.11 415.26 234.35 670.02 234.35 415.26 489.11"/><polygon class="cls-5" points="365.62 556.59 620.38 556.59 620.38 811.35 365.62 556.59"/><polygon class="cls-6" points="100.49 53.97 355.25 53.97 355.25 308.73 100.49 53.97"/><polygon class="cls-7" points="66.01 478.01 320.76 478.01 320.76 732.77 66.01 478.01"/><polygon class="cls-8" points="255.97 277.55 255.97 532.31 1.21 532.31 255.97 277.55"/><polygon class="cls-9" points="478.68 374.63 733.44 374.63 733.44 629.38 478.68 374.63"/><polygon class="cls-10" points="790.26 690.27 790.26 435.52 1045.02 435.52 790.26 690.27"/><polygon class="cls-11" points="868.21 314.55 613.45 314.55 613.45 59.79 868.21 314.55"/><polygon class="cls-12" points="999.49 361.49 819.35 181.35 999.49 1.21 999.49 361.49"/><rect class="cls-13" x="451.18" y="389.46" width="83.63" height="12.53" transform="translate(-135.42 464.51) rotate(-45)"/><rect class="cls-14" x="214.15" y="119.57" width="83.63" height="12.53" transform="translate(-14 217.85) rotate(-45)"/><rect class="cls-15" x="242.61" y="327.95" width="83.63" height="12.53" transform="translate(-153.02 299.01) rotate(-45)"/><rect class="cls-16" x="186.06" y="556.63" width="83.63" height="12.53" transform="translate(-331.29 326) rotate(-45)"/><rect class="cls-17" x="442.79" y="127.77" width="83.63" height="12.53" transform="translate(47.16 381.92) rotate(-45)"/><rect class="cls-18" x="657.63" y="271.29" width="83.63" height="12.53" transform="translate(8.61 575.87) rotate(-45)"/><rect class="cls-19" x="532.04" y="370.97" width="220.4" height="2.19" transform="translate(-74.98 563.1) rotate(-45)"/><rect class="cls-20" x="566.8" y="166.34" width="93.29" height="2.19" transform="translate(61.28 482.81) rotate(-45)"/><rect class="cls-21" x="107.91" y="494.15" width="93.29" height="2.19" transform="translate(-304.92 254.34) rotate(-45)"/><rect class="cls-22" x="860.17" y="125.46" width="93.29" height="2.19" transform="translate(176.11 678.28) rotate(-45)"/><rect class="cls-23" x="520.22" y="549.99" width="93.29" height="2.19" transform="translate(-223.64 562.24) rotate(-45)"/><rect class="cls-24" x="795.02" y="476.92" width="93.29" height="2.19" transform="translate(-91.49 735.15) rotate(-45)"/><rect class="cls-25" x="532.04" y="594.92" width="220.4" height="2.19" transform="translate(-233.34 628.7) rotate(-45)"/><rect class="cls-26" x="821.78" y="482.53" width="220.4" height="2.19" transform="translate(-69 800.66) rotate(-45)"/><rect class="cls-27" x="799.22" y="301.19" width="220.4" height="2.19" transform="translate(52.62 731.59) rotate(-45)"/><rect class="cls-28" x="339.42" y="211.64" width="220.4" height="2.19" transform="translate(-18.73 380.23) rotate(-45)"/><rect class="cls-29" x="182.55" y="466.31" width="220.4" height="2.19" transform="translate(-244.76 343.91) rotate(-45)"/><rect class="cls-30" x="78.12" y="166.34" width="220.4" height="2.19" transform="translate(-63.24 182.2) rotate(-45)"/><rect class="cls-31" x="686.53" y="107.38" width="220.4" height="2.19" transform="translate(156.65 595.14) rotate(-45)"/><rect class="cls-32" x="769.96" y="115.02" width="83.63" height="12.53" transform="translate(152.01 609.53) rotate(-45)"/><rect class="cls-33" x="635.21" y="511.06" width="83.63" height="12.53" transform="translate(-167.51 630.25) rotate(-45)"/><rect class="cls-34" x="394.75" y="571.47" width="83.63" height="12.53" transform="translate(-280.65 477.91) rotate(-45)"/><rect class="cls-35" x="860.39" y="244.67" width="83.63" height="12.53" transform="translate(86.81 711.45) rotate(-45)"/><rect class="cls-36" x="833.61" y="571.47" width="83.63" height="12.53" transform="translate(-152.11 788.23) rotate(-45)"/><path class="cls-37" d="M696.89,297.29c-97,97-177.65,173.69-180.08,171.26s74.24-83.06,171.26-180.08S865.72,114.78,868.15,117.21,793.91,200.27,696.89,297.29Z"/><path class="cls-38" d="M881.13,157.51c-78.74,78.74-144.18,141-146.16,139s60.26-67.41,139-146.15,144.18-141,146.15-139S959.87,78.76,881.13,157.51Z"/><ellipse class="cls-39" cx="308.87" cy="319.52" rx="248.44" ry="6.23" transform="translate(-135.47 311.99) rotate(-45)"/><path class="cls-40" d="M350.28,420.08c-97,97-177.64,173.69-180.08,171.26s74.25-83.05,171.27-180.07S519.11,237.57,521.55,240,447.3,323.06,350.28,420.08Z"/><path class="cls-41" d="M654.65,539.2c-97,97-177.64,173.7-180.07,171.26s74.24-83.05,171.26-180.07,177.65-173.7,180.08-171.27S751.67,442.18,654.65,539.2Z"/><path class="cls-42" d="M248.92,147.8c-69.25,69.25-126.8,124-128.54,122.24s53-59.28,122.25-128.53,126.79-124,128.53-122.24S318.16,78.55,248.92,147.8Z"/><polygon class="cls-43" points="788.24 361.73 770.9 379.07 783.96 379.07 759.73 403.3 788.24 361.73"/><polygon class="cls-44" points="899.43 173.9 882.09 191.24 895.16 191.24 870.93 215.47 899.43 173.9"/><polygon class="cls-45" points="833.6 570.15 816.26 587.5 829.33 587.5 805.1 611.73 833.6 570.15"/><polygon class="cls-46" points="314.96 149.78 297.62 167.13 310.68 167.13 286.45 191.35 314.96 149.78"/><polygon class="cls-47" points="515.48 473.47 498.14 490.81 511.2 490.81 486.97 515.04 515.48 473.47"/><polygon class="cls-48" points="292.75 556.95 275.41 574.29 288.48 574.29 264.25 598.52 292.75 556.95"/><polygon class="cls-49" points="589.49 256.76 572.15 274.1 585.22 274.1 560.99 298.33 589.49 256.76"/><polygon class="cls-50" points="202.57 272.09 185.23 289.44 198.3 289.44 174.06 313.67 202.57 272.09"/></g></g></g></svg>